<svg width="241" height="83" viewBox="0 0 241 83" fill="none" xmlns="http://www.w3.org/2000/svg">
<path d="M130.676 69.0929C127.946 66.7431 125.31 64.2346 122.77 61.5673C120.293 58.8365 117.975 56.0422 115.816 53.1844C113.72 50.3265 111.783 47.437 110.005 44.5156C108.29 41.5308 106.829 38.6095 105.623 35.7516C103.464 38.1014 101.304 40.4829 99.145 42.8962C97.0493 45.246 95.1758 47.6275 93.5246 50.0408C91.8735 52.3905 90.5398 54.772 89.5237 57.1853C88.4441 59.5351 87.9043 61.8848 87.9043 64.2346C87.9043 67.0289 88.3806 69.4422 89.3332 71.4744C90.2223 73.4431 91.4289 75.0626 92.9531 76.3327C94.4773 77.6028 96.2237 78.5237 98.1924 79.0953C100.161 79.6668 102.193 79.9526 104.289 79.9526C108.481 79.9526 112.926 78.9682 117.626 76.9995C122.325 75.0308 126.675 72.3953 130.676 69.0929ZM118.864 12.6033C118.864 10.3806 118.356 8.79287 117.34 7.84027C116.387 6.82416 115.339 6.3161 114.196 6.3161C113.244 6.3161 112.227 6.63363 111.148 7.26871C110.132 7.90378 109.179 8.82463 108.29 10.0313C107.464 11.1744 106.766 12.5715 106.194 14.2227C105.623 15.8739 105.337 17.6839 105.337 19.6526C105.337 23.2725 106.004 27.1147 107.337 31.1791C108.925 29.528 110.418 27.9085 111.815 26.3208C113.212 24.7332 114.418 23.1772 115.435 21.6531C116.514 20.0654 117.34 18.5412 117.911 17.0806C118.546 15.5564 118.864 14.064 118.864 12.6033ZM155.539 82.1436C155.539 82.3341 155.412 82.5246 155.158 82.7152C154.904 82.9057 154.523 83.0009 154.015 83.0009C150.205 81.7943 146.458 80.1114 142.774 77.9521C139.091 75.7294 135.503 73.1573 132.01 70.236C129.597 72.0777 127.088 73.7607 124.484 75.2848C121.881 76.809 119.213 78.1109 116.482 79.1905C113.815 80.2701 111.116 81.0957 108.385 81.6673C105.718 82.2389 103.146 82.5246 100.669 82.5246C98.2559 82.5246 95.9697 82.1754 93.8104 81.4768C91.6512 80.8417 89.7777 79.8573 88.19 78.5237C86.6024 77.1265 85.364 75.4118 84.4749 73.3796C83.5223 71.3474 83.046 68.9659 83.046 66.2351C83.046 63.3137 83.7128 60.4559 85.0464 57.6616C86.3801 54.8038 88.0948 52.0095 90.1905 49.2787C92.2863 46.5479 94.6043 43.8806 97.1446 41.2768C99.7483 38.673 102.289 36.1327 104.765 33.6559C102.924 28.7024 102.003 24.2251 102.003 20.2242C102.003 17.8744 102.416 15.7151 103.241 13.7464C104.13 11.7777 105.242 10.0948 106.575 8.69761C107.909 7.30046 109.37 6.22084 110.957 5.45875C112.609 4.63316 114.164 4.22036 115.625 4.22036C117.34 4.22036 118.896 4.79193 120.293 5.93506C121.69 7.01467 122.389 8.82463 122.389 11.3649C122.389 12.9526 121.976 14.6038 121.15 16.3185C120.388 18.0332 119.34 19.8114 118.007 21.6531C116.736 23.4313 115.212 25.3047 113.434 27.2734C111.719 29.1787 109.909 31.1474 108.004 33.1796C110.1 38.9588 113.212 44.8332 117.34 50.8028C121.531 56.709 126.612 62.2341 132.582 67.3782C135.82 64.4569 138.424 61.2498 140.393 57.7569C142.362 54.264 143.346 50.6123 143.346 46.8019C143.346 45.5317 143.155 44.2616 142.774 42.9915C142.457 41.6578 141.79 40.2607 140.774 38.8C140.774 38.673 140.964 38.546 141.346 38.4189C141.727 38.2284 142.076 38.1332 142.393 38.1332C143.282 38.1332 143.981 38.4507 144.489 39.0858C145.061 39.6573 145.473 40.3559 145.728 41.1815C146.045 42.0071 146.236 42.8644 146.299 43.7535C146.426 44.5791 146.49 45.246 146.49 45.754C146.49 49.9455 145.315 54.0099 142.965 57.9474C140.679 61.8213 137.694 65.3777 134.01 68.6166C140.171 73.8877 147.125 78.1744 154.873 81.4768C155.317 81.7308 155.539 81.9531 155.539 82.1436Z" fill="#D0D0D0"/>
<path d="M8.104 66.472C7.272 66.472 6.552 65.992 5.944 65.032C5.336 64.104 4.904 62.584 4.648 60.472C4.616 60.312 4.6 60.12 4.6 59.896C4.6 59.64 4.6 59.384 4.6 59.128C4.6 58.072 4.664 56.744 4.792 55.144C4.92 53.512 5.08 51.72 5.272 49.768C5.464 47.816 5.64 45.816 5.8 43.768C5.992 41.688 6.152 39.656 6.28 37.672C6.408 35.688 6.472 33.88 6.472 32.248C6.472 30.232 6.344 28.6 6.088 27.352C5.832 26.104 5.368 25.48 4.696 25.48C4.28 25.48 3.864 25.72 3.448 26.2C3.064 26.648 2.712 27.16 2.392 27.736C2.104 28.28 1.864 28.728 1.672 29.08C1.512 29.4 1.416 29.448 1.384 29.224C1.352 29.096 1.32 28.984 1.288 28.888C1.288 28.76 1.288 28.632 1.288 28.504C1.288 27.896 1.432 27.256 1.72 26.584C2.008 25.912 2.408 25.352 2.92 24.904C3.432 24.424 4.008 24.184 4.648 24.184C4.776 24.184 4.888 24.2 4.984 24.232C5.08 24.232 5.176 24.248 5.272 24.28C6.52 24.6 7.368 25.624 7.816 27.352C8.264 29.08 8.488 31.176 8.488 33.64C8.488 35.496 8.392 37.464 8.2 39.544C8.04 41.624 7.848 43.72 7.624 45.832C7.432 47.912 7.24 49.896 7.048 51.784C6.888 53.672 6.808 55.336 6.808 56.776C6.808 57.192 6.808 57.592 6.808 57.976C6.84 58.328 6.872 58.664 6.904 58.984C7.16 61 7.512 62.408 7.96 63.208C8.408 64.04 8.92 64.456 9.496 64.456C10.136 64.456 10.792 64.104 11.464 63.4C12.168 62.696 12.856 61.816 13.528 60.76C14.2 59.704 14.808 58.648 15.352 57.592C16.088 56.216 16.76 54.6 17.368 52.744C17.976 50.888 18.52 49 19 47.08C19.512 45.16 19.912 43.4 20.2 41.8C19.88 41.256 19.688 40.696 19.624 40.12C19.56 39.544 19.528 38.808 19.528 37.912C19.528 36.952 19.704 36.2 20.056 35.656C20.408 35.112 20.776 34.84 21.16 34.84C21.736 34.84 22.12 35.32 22.312 36.28C22.664 37.88 23.016 39.576 23.368 41.368C23.72 43.128 24.104 44.856 24.52 46.552C24.968 48.248 25.48 49.816 26.056 51.256C27.24 54.104 28.328 56.152 29.32 57.4C30.312 58.616 31.224 59.224 32.056 59.224C32.92 59.224 33.672 58.68 34.312 57.592C34.984 56.472 35.544 55.016 35.992 53.224C36.44 51.4 36.776 49.432 37 47.32C37.224 45.176 37.336 43.08 37.336 41.032C37.336 39.336 37.256 37.752 37.096 36.28C36.968 34.808 36.728 33.608 36.376 32.68C36.248 32.296 36.152 31.896 36.088 31.48C36.024 31.064 35.992 30.68 35.992 30.328C35.992 29.88 36.04 29.496 36.136 29.176C36.264 28.856 36.44 28.696 36.664 28.696C36.92 28.696 37.176 28.888 37.432 29.272C37.784 29.72 38.104 30.344 38.392 31.144C38.712 31.912 38.984 32.584 39.208 33.16C39.464 33.8 39.8 34.584 40.216 35.512C40.632 36.408 41.064 37.24 41.512 38.008C41.992 38.744 42.456 39.192 42.904 39.352C42.968 39.384 43 39.448 43 39.544C43 39.736 42.856 39.896 42.568 40.024C42.28 40.152 42.072 40.2 41.944 40.168C41.208 39.816 40.584 39.448 40.072 39.064C39.592 38.648 39.032 37.896 38.392 36.808C38.424 37.384 38.44 37.976 38.44 38.584C38.44 39.16 38.44 39.736 38.44 40.312C38.44 41.976 38.376 43.64 38.248 45.304C38.152 46.968 37.944 48.648 37.624 50.344C36.92 54.024 36.024 56.648 34.936 58.216C33.88 59.784 32.76 60.568 31.576 60.568C30.616 60.568 29.656 60.152 28.696 59.32C27.768 58.456 26.904 57.32 26.104 55.912C25.304 54.504 24.616 52.936 24.04 51.208C23.528 49.544 23.096 48.024 22.744 46.648C22.392 45.24 22.12 44.008 21.928 42.952C21.416 45.256 20.744 47.544 19.912 49.816C19.112 52.088 18.216 54.232 17.224 56.248C16.232 58.232 15.192 59.992 14.104 61.528C13.048 63.064 11.992 64.264 10.936 65.128C9.912 66.024 8.968 66.472 8.104 66.472ZM42.553 60.616C41.977 60.616 41.561 60.376 41.305 59.896C41.049 59.384 40.921 58.792 40.921 58.12C40.921 57.256 41.065 56.248 41.353 55.096C41.673 53.944 42.089 52.76 42.601 51.544C43.113 50.296 43.689 49.16 44.329 48.136C45.001 47.08 45.705 46.232 46.441 45.592C47.177 44.92 47.897 44.584 48.601 44.584C49.241 44.584 49.785 44.872 50.233 45.448C50.713 45.992 50.953 46.616 50.953 47.32C50.953 47.736 50.889 48.088 50.761 48.376C50.633 48.632 50.489 48.76 50.329 48.76C50.201 48.76 50.089 48.664 49.993 48.472C49.673 47.736 49.321 47.208 48.937 46.888C48.585 46.568 48.217 46.408 47.833 46.408C47.193 46.408 46.553 46.776 45.913 47.512C45.305 48.216 44.809 49.032 44.425 49.96C44.105 50.664 43.801 51.512 43.513 52.504C43.257 53.464 43.033 54.424 42.841 55.384C42.681 56.312 42.601 57.08 42.601 57.688C42.601 58.776 42.857 59.32 43.369 59.32C44.009 59.32 44.825 58.616 45.817 57.208C46.553 56.184 47.209 55 47.785 53.656C48.393 52.312 48.905 51.144 49.321 50.152C49.481 49.832 49.657 49.624 49.849 49.528C50.041 49.432 50.217 49.384 50.377 49.384C50.761 49.384 51.001 49.544 51.097 49.864C51.225 50.184 51.289 50.456 51.289 50.68C51.289 51.512 51.209 52.264 51.049 52.936C50.889 53.576 50.809 54.36 50.809 55.288C50.809 55.96 50.857 56.584 50.953 57.16C51.081 57.704 51.289 57.976 51.577 57.976C51.929 57.976 52.377 57.528 52.921 56.632C53.049 56.376 53.241 56.248 53.497 56.248C53.785 56.248 53.929 56.392 53.929 56.68C53.929 57.096 53.641 57.544 53.065 58.024C52.489 58.472 51.913 58.696 51.337 58.696C50.569 58.696 50.025 58.376 49.705 57.736C49.161 56.68 48.889 55.736 48.889 54.904C48.889 54.04 48.873 53.448 48.841 53.128C48.681 53.512 48.377 54.12 47.929 54.952C47.481 55.752 46.953 56.6 46.345 57.496C45.737 58.36 45.097 59.096 44.425 59.704C43.753 60.312 43.129 60.616 42.553 60.616ZM51.2744 67.96C50.9544 67.96 50.6984 67.864 50.5064 67.672C50.2824 67.48 50.2504 67.256 50.4104 67C50.8584 66.328 51.2904 65.368 51.7064 64.12C52.0904 62.904 52.4264 61.624 52.7144 60.28C53.0344 58.936 53.2904 57.72 53.4824 56.632C53.7064 55.512 53.8664 54.728 53.9624 54.28C53.3864 53.736 53.0984 53.128 53.0984 52.456C53.0984 51.944 53.2104 51.512 53.4344 51.16C53.6904 50.808 53.8824 50.648 54.0104 50.68C54.0744 50.68 54.1544 50.712 54.2504 50.776C54.3784 50.808 54.4424 50.856 54.4424 50.92C54.6344 49.416 54.7944 47.928 54.9224 46.456C55.0504 44.952 55.1144 43.576 55.1144 42.328C55.1144 41.304 55.0664 40.392 54.9704 39.592C54.8744 38.792 54.7304 38.152 54.5384 37.672C54.3464 37.192 54.2504 36.824 54.2504 36.568C54.2504 36.216 54.3464 36.04 54.5384 36.04C54.7624 36.04 54.9384 36.184 55.0664 36.472C55.4184 37.176 55.6744 38.28 55.8344 39.784C56.0264 41.288 56.1224 43 56.1224 44.92C56.1224 46.232 56.0904 47.624 56.0264 49.096C55.9624 50.536 55.8504 51.976 55.6904 53.416C56.2664 52.904 56.8584 52.408 57.4664 51.928C58.0744 51.416 58.6024 50.888 59.0504 50.344V50.296C59.0504 50.232 59.0184 50.168 58.9544 50.104C58.9224 50.04 58.9064 49.944 58.9064 49.816C58.9064 49.592 59.0664 49.32 59.3864 49C59.7064 48.68 60.1224 48.232 60.6344 47.656C61.1784 47.048 61.7384 46.504 62.3144 46.024C62.8904 45.512 63.4184 45.272 63.8984 45.304C64.2824 45.304 64.4744 45.432 64.4744 45.688C64.4744 45.976 64.2024 46.408 63.6584 46.984C63.1144 47.56 62.4584 48.168 61.6904 48.808C60.9544 49.448 60.2664 50.04 59.6264 50.584C59.0184 51.096 58.6184 51.448 58.4264 51.64L56.6024 53.656L55.6424 54.664C56.0584 55.72 56.5384 56.76 57.0824 57.784C57.6264 58.808 58.2344 59.656 58.9064 60.328C59.6104 61 60.3304 61.336 61.0664 61.336C61.8344 61.336 62.6184 60.872 63.4184 59.944C63.9624 59.272 64.4264 58.52 64.8104 57.688C65.1944 56.856 65.5144 56.232 65.7704 55.816C65.9304 55.496 66.0904 55.288 66.2504 55.192C66.4104 55.064 66.5384 55 66.6344 55C66.8584 55 66.9384 55.16 66.8744 55.48C66.7464 55.896 66.5224 56.424 66.2024 57.064C65.8824 57.704 65.5624 58.312 65.2424 58.888C64.9544 59.432 64.7304 59.816 64.5704 60.04C63.9624 60.936 63.3544 61.592 62.7464 62.008C62.1384 62.424 61.5464 62.632 60.9704 62.632C60.2344 62.632 59.5144 62.36 58.8104 61.816C58.1064 61.272 57.4504 60.568 56.8424 59.704C56.2664 58.84 55.7384 57.928 55.2584 56.968C54.9064 59.4 54.4744 61.576 53.9624 63.496C53.4504 65.448 52.8904 66.792 52.2824 67.528C51.9944 67.816 51.6584 67.96 51.2744 67.96ZM70.1763 61.624C69.0243 61.624 68.0163 60.952 67.1523 59.608C66.3203 58.232 65.9043 56.072 65.9043 53.128C65.9043 51.208 66.1443 49.672 66.6243 48.52C67.1043 47.336 67.6963 46.472 68.4003 45.928C69.1043 45.384 69.7763 45.112 70.4163 45.112C71.0563 45.112 71.6003 45.336 72.0483 45.784C72.4963 46.2 72.7203 46.808 72.7203 47.608C72.7203 48.376 72.4963 49.192 72.0483 50.056C71.6003 50.888 71.0563 51.656 70.4163 52.36C69.8083 53.032 69.2003 53.48 68.5923 53.704C68.4643 53.768 68.3043 53.8 68.1123 53.8C67.9843 53.8 67.9203 53.752 67.9203 53.656C67.9203 53.4 68.1763 53.112 68.6883 52.792C69.3283 52.344 69.9363 51.672 70.5123 50.776C71.0883 49.848 71.3763 49.032 71.3763 48.328C71.3763 47.912 71.2803 47.592 71.0883 47.368C70.8963 47.112 70.6723 46.984 70.4163 46.984C69.9363 46.984 69.4083 47.368 68.8323 48.136C68.2883 48.872 67.8883 50.152 67.6323 51.976C67.5683 52.488 67.5043 52.984 67.4403 53.464C67.4083 53.912 67.3923 54.36 67.3923 54.808C67.3923 56.6 67.6643 58.008 68.2083 59.032C68.7523 60.024 69.4723 60.52 70.3683 60.52C71.1363 60.52 72.0003 60.072 72.9603 59.176C73.9203 58.248 74.8643 56.808 75.7923 54.856C76.0163 54.344 76.2723 54.088 76.5603 54.088C76.7523 54.088 76.8483 54.216 76.8483 54.472C76.8483 54.696 76.7843 54.936 76.6562 55.192C75.8243 57.24 74.8163 58.824 73.6323 59.944C72.4483 61.064 71.2963 61.624 70.1763 61.624ZM101.509 79C100.037 79 98.6126 78.392 97.2366 77.176C95.8926 75.96 94.7566 74.2 93.8286 71.896C92.9326 69.592 92.4046 66.808 92.2446 63.544C91.2526 63.64 90.3406 63.688 89.5086 63.688C87.6526 63.688 86.2926 63.448 85.4286 62.968C84.5966 62.488 84.1806 61.864 84.1806 61.096C84.1806 60.328 84.5486 59.48 85.2846 58.552C86.0206 57.624 87.0446 56.696 88.3566 55.768C89.6686 54.808 91.2046 53.944 92.9646 53.176C93.5726 49.912 94.5486 46.392 95.8926 42.616C97.2686 38.808 99.1086 34.776 101.413 30.52C101.637 30.104 101.973 29.896 102.421 29.896C102.709 29.896 102.965 29.992 103.189 30.184C103.413 30.376 103.525 30.632 103.525 30.952C103.525 31.112 103.477 31.32 103.381 31.576C101.333 35.704 99.6206 39.496 98.2446 42.952C96.9006 46.376 95.8446 49.512 95.0766 52.36C96.5166 51.816 98.0526 51.368 99.6846 51.016C101.317 50.664 102.981 50.456 104.677 50.392C105.125 50.392 105.349 50.456 105.349 50.584C105.349 50.712 105.189 50.84 104.869 50.968C104.581 51.064 104.085 51.128 103.381 51.16C101.813 51.256 100.309 51.48 98.8686 51.832C97.4606 52.152 96.1326 52.552 94.8846 53.032C94.4046 54.888 94.0366 56.616 93.7806 58.216C93.5246 59.784 93.3646 61.24 93.3006 62.584C96.5966 61.88 99.5886 60.856 102.277 59.512C104.997 58.136 107.397 56.552 109.477 54.76C111.557 52.968 113.301 51.112 114.709 49.192C115.605 47.976 116.245 46.904 116.629 45.976C117.045 45.016 117.253 44.184 117.253 43.48C117.253 42.456 116.933 41.656 116.293 41.08C115.653 40.472 114.805 40.04 113.749 39.784C112.693 39.496 111.541 39.352 110.293 39.352C108.981 39.352 107.653 39.48 106.309 39.736C104.965 39.96 103.749 40.28 102.661 40.696C102.405 40.76 102.229 40.792 102.133 40.792C101.717 40.792 101.509 40.648 101.509 40.36C101.509 40.072 101.685 39.848 102.037 39.688C105.973 37.448 108.773 35.416 110.437 33.592C112.101 31.768 112.933 30.232 112.933 28.984C112.933 27.896 112.421 27.064 111.397 26.488C110.405 25.88 109.093 25.576 107.461 25.576C106.181 25.576 104.741 25.784 103.141 26.2C101.541 26.616 99.8926 27.288 98.1966 28.216C96.7886 28.984 95.5086 29.896 94.3566 30.952C93.2366 31.976 92.2766 33.048 91.4766 34.168C90.7086 35.256 90.1326 36.296 89.7486 37.288C89.3646 38.248 89.2206 39.064 89.3166 39.736C89.3166 39.8 89.3166 39.88 89.3166 39.976C89.3486 40.04 89.3646 40.104 89.3646 40.168C89.3646 40.968 89.1246 41.368 88.6446 41.368C88.4206 41.368 88.1806 41.208 87.9246 40.888C87.7006 40.568 87.5886 40.088 87.5886 39.448C87.5886 38.488 87.8766 37.464 88.4526 36.376C89.0606 35.288 89.8606 34.2 90.8526 33.112C91.8766 31.992 93.0126 30.952 94.2606 29.992C95.5086 29 96.8046 28.152 98.1486 27.448C99.8766 26.52 101.573 25.832 103.237 25.384C104.933 24.936 106.485 24.712 107.893 24.712C109.845 24.712 111.429 25.096 112.645 25.864C113.861 26.632 114.469 27.704 114.469 29.08C114.469 30.36 113.845 31.848 112.597 33.544C111.349 35.24 109.253 37.112 106.309 39.16C107.301 39 108.229 38.888 109.093 38.824C109.957 38.728 110.757 38.68 111.493 38.68C114.245 38.68 116.229 39.144 117.445 40.072C118.693 40.968 119.317 42.136 119.317 43.576C119.317 44.632 119.013 45.784 118.405 47.032C117.829 48.248 117.013 49.512 115.957 50.824C114.421 52.712 112.485 54.536 110.149 56.296C107.845 58.056 105.253 59.576 102.373 60.856C99.5246 62.136 96.4846 63 93.2526 63.448C93.1886 66.296 93.4446 68.648 94.0206 70.504C94.6286 72.36 95.3966 73.8 96.3246 74.824C97.2526 75.88 98.1806 76.616 99.1086 77.032C100.037 77.48 100.805 77.704 101.413 77.704C101.861 77.704 102.165 77.624 102.325 77.464C102.453 77.304 102.645 77.224 102.901 77.224C103.157 77.224 103.397 77.32 103.621 77.512C103.845 77.704 103.957 77.912 103.957 78.136C103.957 78.328 103.845 78.472 103.621 78.568C102.917 78.856 102.213 79 101.509 79ZM89.7006 63.064C90.0526 63.064 90.4366 63.032 90.8526 62.968C91.2686 62.936 91.7166 62.888 92.1966 62.824C92.1646 61.48 92.1966 60.072 92.2926 58.6C92.3886 57.128 92.5646 55.592 92.8206 53.992C90.7726 55.048 89.1566 56.232 87.9726 57.544C86.7886 58.824 86.1966 59.96 86.1966 60.952C86.1966 61.56 86.4846 62.056 87.0606 62.44C87.6366 62.856 88.5166 63.064 89.7006 63.064ZM121.537 60.616C120.961 60.616 120.545 60.376 120.289 59.896C120.033 59.384 119.905 58.792 119.905 58.12C119.905 57.256 120.049 56.248 120.337 55.096C120.657 53.944 121.073 52.76 121.585 51.544C122.097 50.296 122.673 49.16 123.313 48.136C123.985 47.08 124.689 46.232 125.425 45.592C126.161 44.92 126.881 44.584 127.585 44.584C128.225 44.584 128.769 44.872 129.217 45.448C129.697 45.992 129.937 46.616 129.937 47.32C129.937 47.736 129.873 48.088 129.745 48.376C129.617 48.632 129.473 48.76 129.313 48.76C129.185 48.76 129.073 48.664 128.977 48.472C128.657 47.736 128.305 47.208 127.921 46.888C127.569 46.568 127.201 46.408 126.817 46.408C126.177 46.408 125.537 46.776 124.897 47.512C124.289 48.216 123.793 49.032 123.409 49.96C123.089 50.664 122.785 51.512 122.497 52.504C122.241 53.464 122.017 54.424 121.825 55.384C121.665 56.312 121.585 57.08 121.585 57.688C121.585 58.776 121.841 59.32 122.353 59.32C122.993 59.32 123.809 58.616 124.801 57.208C125.537 56.184 126.193 55 126.769 53.656C127.377 52.312 127.889 51.144 128.305 50.152C128.465 49.832 128.641 49.624 128.833 49.528C129.025 49.432 129.201 49.384 129.361 49.384C129.745 49.384 129.985 49.544 130.081 49.864C130.209 50.184 130.273 50.456 130.273 50.68C130.273 51.512 130.193 52.264 130.033 52.936C129.873 53.576 129.793 54.36 129.793 55.288C129.793 55.96 129.841 56.584 129.937 57.16C130.065 57.704 130.273 57.976 130.561 57.976C130.913 57.976 131.361 57.528 131.905 56.632C132.033 56.376 132.225 56.248 132.481 56.248C132.769 56.248 132.913 56.392 132.913 56.68C132.913 57.096 132.625 57.544 132.049 58.024C131.473 58.472 130.897 58.696 130.321 58.696C129.553 58.696 129.009 58.376 128.689 57.736C128.145 56.68 127.873 55.736 127.873 54.904C127.873 54.04 127.857 53.448 127.825 53.128C127.665 53.512 127.361 54.12 126.913 54.952C126.465 55.752 125.937 56.6 125.329 57.496C124.721 58.36 124.081 59.096 123.409 59.704C122.737 60.312 122.113 60.616 121.537 60.616ZM130.259 67.96C129.939 67.96 129.683 67.864 129.491 67.672C129.267 67.48 129.235 67.256 129.395 67C129.843 66.328 130.275 65.368 130.691 64.12C131.075 62.904 131.411 61.624 131.699 60.28C132.019 58.936 132.275 57.72 132.467 56.632C132.691 55.512 132.851 54.728 132.947 54.28C132.371 53.736 132.083 53.128 132.083 52.456C132.083 51.944 132.195 51.512 132.419 51.16C132.675 50.808 132.867 50.648 132.995 50.68C133.059 50.68 133.139 50.712 133.235 50.776C133.363 50.808 133.427 50.856 133.427 50.92C133.619 49.416 133.779 47.928 133.907 46.456C134.035 44.952 134.099 43.576 134.099 42.328C134.099 41.304 134.051 40.392 133.955 39.592C133.859 38.792 133.715 38.152 133.523 37.672C133.331 37.192 133.235 36.824 133.235 36.568C133.235 36.216 133.331 36.04 133.523 36.04C133.747 36.04 133.923 36.184 134.051 36.472C134.403 37.176 134.659 38.28 134.819 39.784C135.011 41.288 135.107 43 135.107 44.92C135.107 46.232 135.075 47.624 135.011 49.096C134.947 50.536 134.835 51.976 134.675 53.416C135.251 52.904 135.843 52.408 136.451 51.928C137.059 51.416 137.587 50.888 138.035 50.344V50.296C138.035 50.232 138.003 50.168 137.939 50.104C137.907 50.04 137.891 49.944 137.891 49.816C137.891 49.592 138.051 49.32 138.371 49C138.691 48.68 139.107 48.232 139.619 47.656C140.163 47.048 140.723 46.504 141.299 46.024C141.875 45.512 142.403 45.272 142.883 45.304C143.267 45.304 143.459 45.432 143.459 45.688C143.459 45.976 143.187 46.408 142.643 46.984C142.099 47.56 141.443 48.168 140.675 48.808C139.939 49.448 139.251 50.04 138.611 50.584C138.003 51.096 137.603 51.448 137.411 51.64L135.587 53.656L134.627 54.664C135.043 55.72 135.523 56.76 136.067 57.784C136.611 58.808 137.219 59.656 137.891 60.328C138.595 61 139.315 61.336 140.051 61.336C140.819 61.336 141.603 60.872 142.403 59.944C142.947 59.272 143.411 58.52 143.795 57.688C144.179 56.856 144.499 56.232 144.755 55.816C144.915 55.496 145.075 55.288 145.235 55.192C145.395 55.064 145.523 55 145.619 55C145.843 55 145.923 55.16 145.859 55.48C145.731 55.896 145.507 56.424 145.187 57.064C144.867 57.704 144.547 58.312 144.227 58.888C143.939 59.432 143.715 59.816 143.555 60.04C142.947 60.936 142.339 61.592 141.731 62.008C141.123 62.424 140.531 62.632 139.955 62.632C139.219 62.632 138.499 62.36 137.795 61.816C137.091 61.272 136.435 60.568 135.827 59.704C135.251 58.84 134.723 57.928 134.243 56.968C133.891 59.4 133.459 61.576 132.947 63.496C132.435 65.448 131.875 66.792 131.267 67.528C130.979 67.816 130.643 67.96 130.259 67.96ZM149.161 61.624C148.009 61.624 147.001 60.952 146.137 59.608C145.305 58.232 144.889 56.072 144.889 53.128C144.889 51.208 145.129 49.672 145.609 48.52C146.089 47.336 146.681 46.472 147.385 45.928C148.089 45.384 148.761 45.112 149.401 45.112C150.041 45.112 150.585 45.336 151.033 45.784C151.481 46.2 151.705 46.808 151.705 47.608C151.705 48.376 151.481 49.192 151.033 50.056C150.585 50.888 150.041 51.656 149.401 52.36C148.793 53.032 148.185 53.48 147.577 53.704C147.449 53.768 147.289 53.8 147.097 53.8C146.969 53.8 146.905 53.752 146.905 53.656C146.905 53.4 147.161 53.112 147.673 52.792C148.313 52.344 148.921 51.672 149.497 50.776C150.073 49.848 150.361 49.032 150.361 48.328C150.361 47.912 150.265 47.592 150.073 47.368C149.881 47.112 149.657 46.984 149.401 46.984C148.921 46.984 148.393 47.368 147.817 48.136C147.273 48.872 146.873 50.152 146.617 51.976C146.553 52.488 146.489 52.984 146.425 53.464C146.393 53.912 146.377 54.36 146.377 54.808C146.377 56.6 146.649 58.008 147.193 59.032C147.737 60.024 148.457 60.52 149.353 60.52C150.121 60.52 150.985 60.072 151.945 59.176C152.905 58.248 153.849 56.808 154.777 54.856C155.001 54.344 155.257 54.088 155.545 54.088C155.737 54.088 155.833 54.216 155.833 54.472C155.833 54.696 155.769 54.936 155.641 55.192C154.809 57.24 153.801 58.824 152.617 59.944C151.433 61.064 150.281 61.624 149.161 61.624Z" fill="black"/>
</svg>
